<svg width="393" height="852" viewBox="0 0 393 852" fill="none" xmlns="http://www.w3.org/2000/svg">
<g clip-path="url(#clip0_2_674)">
<rect width="393" height="852" fill="white"/>
<rect width="393" height="852" fill="#D9D9D9"/>
<g filter="url(#filter0_f_2_674)">
<ellipse cx="-14.607" cy="269.085" rx="176.393" ry="152.085" fill="#6C70DB" fill-opacity="0.2"/>
</g>
<g filter="url(#filter1_f_2_674)">
<ellipse cx="486.607" cy="635.638" rx="176.393" ry="152.085" fill="#0F159C" fill-opacity="0.2"/>
</g>
<g clip-path="url(#clip1_2_674)">
<rect width="393" height="852" fill="#FEFEFE" fill-opacity="0.5"/>
<rect y="772" width="393" height="80" fill="white"/>
<path d="M180.685 865.45H59.3687V869.126H180.685V865.45Z" fill="#DDDDDD" fill-opacity="0.7" mask="url(#path-5-outside-1_2_674)"/>
<path d="M81.7118 798.057C82.5831 797.233 83.9461 797.233 84.8174 798.057L95.7649 808.407C96.4423 809.048 96.8261 809.939 96.8261 810.871V823.459C96.8261 825.331 95.3081 826.849 93.4357 826.849H88.9152C87.0427 826.849 85.5248 825.331 85.5248 823.459V817.808C85.5248 817.184 85.0189 816.678 84.3947 816.678H82.1345C81.5103 816.678 81.0043 817.184 81.0043 817.808V823.459C81.0043 825.331 79.4864 826.849 77.614 826.849H73.0935C71.221 826.849 69.7031 825.331 69.7031 823.459V810.871C69.7031 809.939 70.0869 809.048 70.7643 808.407L81.7118 798.057ZM83.2646 799.699L72.3171 810.05C72.0913 810.263 71.9634 810.56 71.9634 810.871V823.459C71.9634 824.083 72.4693 824.589 73.0935 824.589H77.614C78.2381 824.589 78.7441 824.083 78.7441 823.459V817.808C78.7441 815.936 80.262 814.418 82.1345 814.418H84.3947C86.2672 814.418 87.7851 815.936 87.7851 817.808V823.459C87.7851 824.083 88.2911 824.589 88.9152 824.589H93.4357C94.0597 824.589 94.5658 824.083 94.5658 823.459V810.871C94.5658 810.56 94.4379 810.263 94.2121 810.05L83.2646 799.699Z" fill="#060D38"/>
<path fill-rule="evenodd" clip-rule="evenodd" d="M143.923 807.853H152.502V799.277H143.923V807.853ZM161.08 807.853H169.656V799.277H161.08V807.853ZM143.923 825.011H152.502V816.432H143.923V825.011ZM161.08 825.011H169.656V816.432H161.08V825.011ZM142.443 809.333C142.673 809.562 142.985 809.692 143.31 809.692H153.114C153.439 809.692 153.751 809.562 153.981 809.333C154.211 809.103 154.34 808.791 154.34 808.466V798.664C154.34 798.339 154.211 798.028 153.981 797.798C153.751 797.568 153.439 797.439 153.114 797.439H143.31C142.985 797.439 142.673 797.568 142.443 797.798C142.214 798.028 142.084 798.339 142.084 798.664V808.466C142.084 808.791 142.214 809.103 142.443 809.333ZM159.601 809.333C159.831 809.562 160.142 809.692 160.467 809.692H170.269C170.594 809.692 170.906 809.562 171.136 809.333C171.365 809.103 171.495 808.791 171.495 808.466V798.664C171.495 798.339 171.365 798.028 171.136 797.798C170.906 797.568 170.594 797.439 170.269 797.439H160.467C160.142 797.439 159.831 797.568 159.601 797.798C159.371 798.028 159.242 798.339 159.242 798.664V808.466C159.242 808.791 159.371 809.103 159.601 809.333ZM142.443 826.49C142.673 826.72 142.985 826.849 143.31 826.849H153.114C153.439 826.849 153.751 826.72 153.981 826.49C154.211 826.26 154.34 825.948 154.34 825.623V815.819C154.34 815.494 154.211 815.182 153.981 814.953C153.751 814.723 153.439 814.594 153.114 814.594H143.31C142.985 814.594 142.673 814.723 142.443 814.953C142.214 815.182 142.084 815.494 142.084 815.819V825.623C142.084 825.948 142.214 826.26 142.443 826.49ZM159.601 826.49C159.831 826.72 160.142 826.849 160.467 826.849H170.269C170.594 826.849 170.906 826.72 171.136 826.49C171.365 826.26 171.495 825.948 171.495 825.623V815.819C171.495 815.494 171.365 815.182 171.136 814.953C170.906 814.723 170.594 814.594 170.269 814.594H160.467C160.142 814.594 159.831 814.723 159.601 814.953C159.371 815.182 159.242 815.494 159.242 815.819V825.623C159.242 825.948 159.371 826.26 159.601 826.49Z" fill="#060D38"/>
<circle cx="175.171" cy="797.439" r="5.51439" fill="#E90C0C"/>
<path d="M334.131 865.45H199.948V869.126H334.131V865.45Z" fill="#DDDDDD" fill-opacity="0.7" mask="url(#path-12-outside-2_2_674)"/>
<path fill-rule="evenodd" clip-rule="evenodd" d="M217.725 800.751C217.725 798.538 219.519 796.744 221.732 796.744H230.521C231.584 796.744 232.603 797.166 233.354 797.917L233.354 797.918L241.655 806.218C241.655 806.218 241.655 806.218 241.655 806.218C242.406 806.97 242.828 807.989 242.828 809.051V823.537C242.828 825.75 241.034 827.544 238.822 827.544H221.732C219.519 827.544 217.725 825.75 217.725 823.537V800.751ZM238.874 806.713L232.859 800.698V806.713H238.874ZM230.543 799.06C230.535 799.06 230.528 799.06 230.521 799.06H221.732C220.798 799.06 220.041 799.817 220.041 800.751V823.537C220.041 824.471 220.798 825.227 221.732 825.227H238.822C239.755 825.227 240.512 824.471 240.512 823.537V809.051C240.512 809.034 240.512 809.016 240.511 808.999C240.426 809.019 240.337 809.03 240.246 809.03H231.701C231.061 809.03 230.543 808.511 230.543 807.871V799.06ZM223.422 807.871C223.422 807.232 223.94 806.713 224.58 806.713H226.004C226.644 806.713 227.162 807.232 227.162 807.871C227.162 808.511 226.644 809.03 226.004 809.03H224.58C223.94 809.03 223.422 808.511 223.422 807.871ZM223.422 813.568C223.422 812.928 223.94 812.41 224.58 812.41H234.549C235.189 812.41 235.707 812.928 235.707 813.568C235.707 814.208 235.189 814.726 234.549 814.726H224.58C223.94 814.726 223.422 814.208 223.422 813.568ZM223.422 819.265C223.422 818.625 223.94 818.107 224.58 818.107H234.549C235.189 818.107 235.707 818.625 235.707 819.265C235.707 819.904 235.189 820.423 234.549 820.423H224.58C223.94 820.423 223.422 819.904 223.422 819.265Z" fill="#060D38"/>
<g clip-path="url(#clip2_2_674)">
<path d="M289.203 801.716C289.203 800.563 290.135 799.631 291.289 799.631H316.315C317.469 799.631 318.401 800.563 318.401 801.716C318.401 802.87 317.469 803.802 316.315 803.802H291.289C290.135 803.802 289.203 802.87 289.203 801.716ZM289.203 812.144C289.203 810.99 290.135 810.058 291.289 810.058H316.315C317.469 810.058 318.401 810.99 318.401 812.144C318.401 813.297 317.469 814.229 316.315 814.229H291.289C290.135 814.229 289.203 813.297 289.203 812.144ZM318.401 822.572C318.401 823.725 317.469 824.657 316.315 824.657H291.289C290.135 824.657 289.203 823.725 289.203 822.572C289.203 821.418 290.135 820.486 291.289 820.486H316.315C317.469 820.486 318.401 821.418 318.401 822.572Z" fill="black"/>
</g>
<circle cx="322.183" cy="799.136" r="5.51439" fill="#E90C0C"/>
</g>
<rect x="10" y="84" width="83.9903" height="8.39903" rx="4.19951" fill="#4BC289"/>
<rect x="102.39" y="84" width="83.9903" height="8.39903" rx="4.19951" fill="#4BC289"/>
<rect x="194.779" y="84" width="83.9903" height="8.39903" rx="4.19951" fill="#C24B4B"/>
<rect x="287.168" y="84" width="83.9903" height="8.39903" rx="4.19951" fill="#D9D9D9"/>
<rect x="379.557" y="84" width="83.9903" height="8.39903" rx="4.19951" fill="#D9D9D9"/>
<path d="M14.3847 119.681V123.352H19.3149V125.681H14.3847V129.562H19.9443V131.954H11.4476V117.289H19.9443V119.681H14.3847ZM29.0332 131.954L26.6415 128.345L24.5226 131.954H21.3756L25.1729 126.121L21.3337 120.331H24.6485L27.0191 123.918L29.159 120.331H32.306L28.4877 126.121L32.3479 131.954H29.0332ZM44.7476 125.891C44.7476 126.31 44.7197 126.688 44.6637 127.023H36.167C36.237 127.863 36.5307 128.52 37.0482 128.996C37.5657 129.471 38.202 129.709 38.9573 129.709C40.0482 129.709 40.8245 129.24 41.286 128.303H44.4539C44.1183 129.422 43.4749 130.345 42.5238 131.073C41.5727 131.786 40.4049 132.142 39.0202 132.142C37.9013 132.142 36.8943 131.898 35.9992 131.408C35.1181 130.905 34.4257 130.198 33.9222 129.289C33.4327 128.38 33.1879 127.331 33.1879 126.142C33.1879 124.939 33.4327 123.884 33.9222 122.974C34.4117 122.065 35.0971 121.366 35.9782 120.876C36.8594 120.387 37.8734 120.142 39.0202 120.142C40.1252 120.142 41.1112 120.38 41.9784 120.855C42.8595 121.331 43.5378 122.009 44.0134 122.89C44.5029 123.758 44.7476 124.758 44.7476 125.891ZM41.7056 125.051C41.6916 124.296 41.4189 123.695 40.8874 123.247C40.3559 122.786 39.7056 122.555 38.9363 122.555C38.209 122.555 37.5936 122.779 37.0901 123.226C36.6006 123.66 36.2999 124.268 36.188 125.051H41.7056ZM49.8286 122.135C50.2063 121.52 50.6958 121.037 51.2972 120.688C51.9126 120.338 52.6119 120.163 53.3951 120.163V123.247H52.6189C51.6958 123.247 50.9965 123.464 50.5209 123.898C50.0594 124.331 49.8286 125.086 49.8286 126.163V131.954H46.8915V120.331H49.8286V122.135ZM54.6182 126.142C54.6182 124.939 54.8629 123.891 55.3525 122.995C55.842 122.086 56.5203 121.387 57.3875 120.897C58.2546 120.394 59.2477 120.142 60.3666 120.142C61.8072 120.142 62.996 120.506 63.9331 121.233C64.8842 121.946 65.5205 122.953 65.8422 124.254H62.6743C62.5065 123.751 62.2198 123.359 61.8142 123.079C61.4225 122.786 60.933 122.639 60.3456 122.639C59.5064 122.639 58.8421 122.946 58.3525 123.562C57.863 124.163 57.6183 125.023 57.6183 126.142C57.6183 127.247 57.863 128.107 58.3525 128.723C58.8421 129.324 59.5064 129.625 60.3456 129.625C61.5344 129.625 62.3107 129.093 62.6743 128.03H65.8422C65.5205 129.289 64.8842 130.289 63.9331 131.031C62.982 131.772 61.7932 132.142 60.3666 132.142C59.2477 132.142 58.2546 131.898 57.3875 131.408C56.5203 130.905 55.842 130.205 55.3525 129.31C54.8629 128.401 54.6182 127.345 54.6182 126.142ZM69.4835 118.946C68.966 118.946 68.5324 118.786 68.1827 118.464C67.8471 118.128 67.6792 117.716 67.6792 117.226C67.6792 116.737 67.8471 116.331 68.1827 116.009C68.5324 115.674 68.966 115.506 69.4835 115.506C70.001 115.506 70.4276 115.674 70.7632 116.009C71.1129 116.331 71.2877 116.737 71.2877 117.226C71.2877 117.716 71.1129 118.128 70.7632 118.464C70.4276 118.786 70.001 118.946 69.4835 118.946ZM70.9311 120.331V131.954H67.9939V120.331H70.9311ZM73.0777 126.142C73.0777 124.939 73.3225 123.891 73.812 122.995C74.3015 122.086 74.9798 121.387 75.847 120.897C76.7141 120.394 77.7072 120.142 78.8261 120.142C80.2667 120.142 81.4555 120.506 82.3926 121.233C83.3437 121.946 83.98 122.953 84.3017 124.254H81.1338C80.966 123.751 80.6793 123.359 80.2737 123.079C79.882 122.786 79.3925 122.639 78.8051 122.639C77.9659 122.639 77.3016 122.946 76.812 123.562C76.3225 124.163 76.0778 125.023 76.0778 126.142C76.0778 127.247 76.3225 128.107 76.812 128.723C77.3016 129.324 77.9659 129.625 78.8051 129.625C79.9939 129.625 80.7702 129.093 81.1338 128.03H84.3017C83.98 129.289 83.3437 130.289 82.3926 131.031C81.4415 131.772 80.2527 132.142 78.8261 132.142C77.7072 132.142 76.7141 131.898 75.847 131.408C74.9798 130.905 74.3015 130.205 73.812 129.31C73.3225 128.401 73.0777 127.345 73.0777 126.142ZM87.943 118.946C87.4255 118.946 86.9919 118.786 86.6423 118.464C86.3066 118.128 86.1388 117.716 86.1388 117.226C86.1388 116.737 86.3066 116.331 86.6423 116.009C86.9919 115.674 87.4255 115.506 87.943 115.506C88.4605 115.506 88.8871 115.674 89.2227 116.009C89.5724 116.331 89.7472 116.737 89.7472 117.226C89.7472 117.716 89.5724 118.128 89.2227 118.464C88.8871 118.786 88.4605 118.946 87.943 118.946ZM89.3906 120.331V131.954H86.4534V120.331H89.3906ZM97.4534 132.142C96.3345 132.142 95.3275 131.898 94.4324 131.408C93.5373 130.905 92.8309 130.198 92.3134 129.289C91.8099 128.38 91.5582 127.331 91.5582 126.142C91.5582 124.953 91.8169 123.905 92.3344 122.995C92.8659 122.086 93.5862 121.387 94.4953 120.897C95.4044 120.394 96.4184 120.142 97.5373 120.142C98.6563 120.142 99.6703 120.394 100.579 120.897C101.488 121.387 102.202 122.086 102.719 122.995C103.251 123.905 103.517 124.953 103.517 126.142C103.517 127.331 103.244 128.38 102.698 129.289C102.167 130.198 101.44 130.905 100.516 131.408C99.6073 131.898 98.5863 132.142 97.4534 132.142ZM97.4534 129.583C97.9849 129.583 98.4814 129.457 98.943 129.205C99.4185 128.94 99.7961 128.548 100.076 128.03C100.356 127.513 100.495 126.884 100.495 126.142C100.495 125.037 100.202 124.191 99.6143 123.604C99.0409 123.002 98.3346 122.702 97.4954 122.702C96.6562 122.702 95.9499 123.002 95.3765 123.604C94.817 124.191 94.5373 125.037 94.5373 126.142C94.5373 127.247 94.81 128.1 95.3555 128.702C95.9149 129.289 96.6142 129.583 97.4534 129.583ZM110.119 132.142C109.168 132.142 108.314 131.975 107.559 131.639C106.804 131.289 106.202 130.821 105.755 130.233C105.321 129.646 105.084 128.996 105.042 128.282H108C108.056 128.73 108.272 129.1 108.65 129.394C109.042 129.688 109.524 129.835 110.098 129.835C110.657 129.835 111.091 129.723 111.398 129.499C111.72 129.275 111.881 128.989 111.881 128.639C111.881 128.261 111.685 127.982 111.294 127.8C110.916 127.604 110.307 127.394 109.468 127.17C108.601 126.961 107.888 126.744 107.328 126.52C106.783 126.296 106.307 125.954 105.902 125.492C105.51 125.03 105.314 124.408 105.314 123.625C105.314 122.981 105.496 122.394 105.86 121.862C106.237 121.331 106.769 120.911 107.454 120.604C108.154 120.296 108.972 120.142 109.909 120.142C111.294 120.142 112.398 120.492 113.224 121.191C114.049 121.876 114.503 122.807 114.587 123.981H111.776C111.734 123.52 111.538 123.156 111.189 122.89C110.853 122.611 110.398 122.471 109.825 122.471C109.293 122.471 108.881 122.569 108.587 122.765C108.307 122.96 108.168 123.233 108.168 123.583C108.168 123.974 108.363 124.275 108.755 124.485C109.147 124.681 109.755 124.884 110.58 125.093C111.419 125.303 112.112 125.52 112.657 125.744C113.203 125.967 113.671 126.317 114.063 126.793C114.468 127.254 114.678 127.87 114.692 128.639C114.692 129.31 114.503 129.912 114.126 130.443C113.762 130.975 113.231 131.394 112.531 131.702C111.846 131.996 111.042 132.142 110.119 132.142ZM121.41 119.366V116.66H126.466V131.954H123.445V119.366H121.41ZM133.947 126.1C133.947 124.926 134.178 123.884 134.639 122.974C135.115 122.065 135.758 121.366 136.569 120.876C137.381 120.387 138.283 120.142 139.276 120.142C140.031 120.142 140.751 120.31 141.437 120.646C142.122 120.967 142.667 121.401 143.073 121.946V116.429H146.052V131.954H143.073V130.233C142.709 130.807 142.199 131.268 141.542 131.618C140.884 131.968 140.122 132.142 139.255 132.142C138.276 132.142 137.381 131.891 136.569 131.387C135.758 130.884 135.115 130.177 134.639 129.268C134.178 128.345 133.947 127.289 133.947 126.1ZM143.094 126.142C143.094 125.429 142.954 124.821 142.674 124.317C142.395 123.8 142.017 123.408 141.542 123.142C141.066 122.863 140.556 122.723 140.01 122.723C139.465 122.723 138.961 122.856 138.5 123.121C138.038 123.387 137.66 123.779 137.367 124.296C137.087 124.8 136.947 125.401 136.947 126.1C136.947 126.8 137.087 127.415 137.367 127.947C137.66 128.464 138.038 128.863 138.5 129.142C138.975 129.422 139.479 129.562 140.01 129.562C140.556 129.562 141.066 129.429 141.542 129.163C142.017 128.884 142.395 128.492 142.674 127.989C142.954 127.471 143.094 126.856 143.094 126.142ZM159.725 125.891C159.725 126.31 159.697 126.688 159.641 127.023H151.145C151.215 127.863 151.508 128.52 152.026 128.996C152.543 129.471 153.18 129.709 153.935 129.709C155.026 129.709 155.802 129.24 156.264 128.303H159.431C159.096 129.422 158.452 130.345 157.501 131.073C156.55 131.786 155.382 132.142 153.998 132.142C152.879 132.142 151.872 131.898 150.977 131.408C150.096 130.905 149.403 130.198 148.9 129.289C148.41 128.38 148.165 127.331 148.165 126.142C148.165 124.939 148.41 123.884 148.9 122.974C149.389 122.065 150.075 121.366 150.956 120.876C151.837 120.387 152.851 120.142 153.998 120.142C155.103 120.142 156.089 120.38 156.956 120.855C157.837 121.331 158.515 122.009 158.991 122.89C159.48 123.758 159.725 124.758 159.725 125.891ZM156.683 125.051C156.669 124.296 156.396 123.695 155.865 123.247C155.333 122.786 154.683 122.555 153.914 122.555C153.187 122.555 152.571 122.779 152.068 123.226C151.578 123.66 151.277 124.268 151.166 125.051H156.683ZM166.176 119.366V116.66H171.232V131.954H168.211V119.366H166.176ZM184.413 119.198H177.616V122.786C177.91 122.422 178.329 122.128 178.875 121.904C179.42 121.667 180.001 121.548 180.616 121.548C181.735 121.548 182.651 121.793 183.364 122.282C184.078 122.772 184.595 123.401 184.917 124.17C185.239 124.926 185.399 125.737 185.399 126.604C185.399 128.212 184.938 129.506 184.015 130.485C183.106 131.464 181.805 131.954 180.113 131.954C178.518 131.954 177.245 131.555 176.294 130.758C175.343 129.961 174.805 128.919 174.679 127.632H177.532C177.658 128.191 177.938 128.639 178.371 128.975C178.819 129.31 179.385 129.478 180.071 129.478C180.896 129.478 181.518 129.219 181.938 128.702C182.357 128.184 182.567 127.499 182.567 126.646C182.567 125.779 182.35 125.121 181.917 124.674C181.497 124.212 180.875 123.981 180.05 123.981C179.462 123.981 178.973 124.128 178.581 124.422C178.189 124.716 177.91 125.107 177.742 125.597H174.931V116.618H184.413V119.198Z" fill="#060606"/>
<g clip-path="url(#clip3_2_674)">
<path d="M259.309 278.887C279.053 294.919 291.678 319.439 291.678 346.88C291.678 374.321 279.053 398.81 259.309 414.873C256.175 417.428 251.582 416.942 249.026 413.808C246.471 410.675 246.958 406.081 250.091 403.526C266.58 390.14 277.075 369.757 277.075 346.88C277.075 324.003 266.58 303.62 250.091 290.204C246.958 287.648 246.501 283.055 249.026 279.921C251.551 276.788 256.175 276.332 259.309 278.857V278.887ZM240.904 301.551C254.046 312.26 262.473 328.596 262.473 346.88C262.473 365.164 254.046 381.5 240.904 392.209C237.77 394.764 233.176 394.277 230.621 391.144C228.066 388.01 228.552 383.417 231.686 380.861C241.573 372.83 247.87 360.6 247.87 346.88C247.87 333.16 241.573 320.93 231.686 312.868C228.552 310.313 228.096 305.719 230.621 302.586C233.146 299.452 237.77 298.996 240.904 301.521V301.551ZM222.498 324.216C229.039 329.57 233.268 337.723 233.268 346.88C233.268 356.037 229.039 364.19 222.498 369.544C219.365 372.1 214.771 371.613 212.216 368.48C209.66 365.346 210.147 360.752 213.281 358.197C216.566 355.52 218.665 351.443 218.665 346.88C218.665 342.317 216.566 338.24 213.281 335.533C210.147 332.977 209.691 328.383 212.216 325.25C214.741 322.117 219.365 321.66 222.498 324.185V324.216ZM188.578 279.587C192.076 281.169 194.328 284.637 194.328 288.47V405.29C194.328 409.123 192.076 412.591 188.578 414.173C185.079 415.755 180.972 415.116 178.113 412.561L137.074 376.085H116.448C105.709 376.085 96.9775 367.354 96.9775 356.615V337.145C96.9775 326.406 105.709 317.675 116.448 317.675H137.074L178.113 281.199C180.972 278.644 185.079 278.035 188.578 279.587Z" fill="#5A73CC"/>
</g>
<g filter="url(#filter2_f_2_674)">
<path d="M91.8781 479.214C91.8781 476.26 92.5378 473.621 93.8573 471.297C95.2055 468.945 97.027 467.124 99.3219 465.833C101.645 464.513 104.241 463.853 107.11 463.853C110.466 463.853 113.406 464.714 115.931 466.435C118.455 468.156 120.219 470.537 121.223 473.578H114.295C113.607 472.143 112.632 471.068 111.37 470.351C110.136 469.633 108.702 469.275 107.067 469.275C105.317 469.275 103.754 469.691 102.377 470.523C101.029 471.326 99.9673 472.473 99.1928 473.965C98.447 475.457 98.074 477.206 98.074 479.214C98.074 481.194 98.447 482.943 99.1928 484.464C99.9673 485.955 101.029 487.117 102.377 487.949C103.754 488.752 105.317 489.154 107.067 489.154C108.702 489.154 110.136 488.795 111.37 488.078C112.632 487.332 113.607 486.242 114.295 484.808H121.223C120.219 487.877 118.455 490.272 115.931 491.994C113.435 493.686 110.495 494.532 107.11 494.532C104.241 494.532 101.645 493.887 99.3219 492.596C97.027 491.276 95.2055 489.455 93.8573 487.131C92.5378 484.808 91.8781 482.169 91.8781 479.214ZM124.819 482.269C124.819 479.86 125.292 477.723 126.239 475.858C127.214 473.994 128.519 472.559 130.155 471.555C131.818 470.551 133.668 470.049 135.705 470.049C137.484 470.049 139.033 470.408 140.352 471.125C141.7 471.842 142.776 472.746 143.579 473.836V470.437H149.646V494.274H143.579V490.789C142.805 491.907 141.729 492.84 140.352 493.586C139.004 494.303 137.441 494.661 135.662 494.661C133.654 494.661 131.818 494.145 130.155 493.112C128.519 492.08 127.214 490.631 126.239 488.766C125.292 486.873 124.819 484.708 124.819 482.269ZM143.579 482.355C143.579 480.892 143.292 479.645 142.719 478.612C142.145 477.551 141.37 476.747 140.395 476.202C139.42 475.629 138.373 475.342 137.254 475.342C136.135 475.342 135.103 475.614 134.156 476.159C133.21 476.704 132.435 477.508 131.833 478.569C131.259 479.602 130.972 480.835 130.972 482.269C130.972 483.704 131.259 484.966 131.833 486.056C132.435 487.117 133.21 487.935 134.156 488.508C135.131 489.082 136.164 489.369 137.254 489.369C138.373 489.369 139.42 489.096 140.395 488.551C141.37 487.978 142.145 487.174 142.719 486.142C143.292 485.08 143.579 483.818 143.579 482.355ZM153.98 482.355C153.98 479.888 154.482 477.737 155.486 475.901C156.49 474.037 157.882 472.602 159.66 471.598C161.439 470.566 163.475 470.049 165.77 470.049C168.725 470.049 171.163 470.795 173.085 472.287C175.035 473.75 176.341 475.815 177 478.483H170.503C170.159 477.45 169.571 476.647 168.739 476.073C167.936 475.471 166.932 475.17 165.727 475.17C164.006 475.17 162.643 475.801 161.639 477.063C160.635 478.296 160.133 480.061 160.133 482.355C160.133 484.621 160.635 486.386 161.639 487.648C162.643 488.881 164.006 489.498 165.727 489.498C168.165 489.498 169.757 488.408 170.503 486.228H177C176.341 488.81 175.035 490.86 173.085 492.381C171.134 493.901 168.696 494.661 165.77 494.661C163.475 494.661 161.439 494.159 159.66 493.155C157.882 492.123 156.49 490.688 155.486 488.853C154.482 486.988 153.98 484.822 153.98 482.355ZM194.838 470.092C196.645 470.092 198.251 470.494 199.657 471.297C201.063 472.072 202.153 473.233 202.927 474.782C203.73 476.303 204.132 478.139 204.132 480.29V494.274H198.108V481.108C198.108 479.214 197.635 477.766 196.688 476.762C195.742 475.729 194.451 475.213 192.816 475.213C191.152 475.213 189.832 475.729 188.857 476.762C187.91 477.766 187.437 479.214 187.437 481.108V494.274H181.413V462.434H187.437V473.406C188.212 472.373 189.244 471.57 190.535 470.996C191.826 470.394 193.26 470.092 194.838 470.092ZM220.445 494.661C218.15 494.661 216.085 494.159 214.249 493.155C212.413 492.123 210.965 490.674 209.903 488.81C208.871 486.945 208.354 484.794 208.354 482.355C208.354 479.917 208.885 477.766 209.946 475.901C211.036 474.037 212.514 472.602 214.378 471.598C216.243 470.566 218.322 470.049 220.617 470.049C222.912 470.049 224.992 470.566 226.856 471.598C228.721 472.602 230.184 474.037 231.245 475.901C232.335 477.766 232.88 479.917 232.88 482.355C232.88 484.794 232.321 486.945 231.202 488.81C230.112 490.674 228.62 492.123 226.727 493.155C224.863 494.159 222.769 494.661 220.445 494.661ZM220.445 489.412C221.535 489.412 222.553 489.154 223.5 488.637C224.475 488.092 225.25 487.289 225.824 486.228C226.397 485.166 226.684 483.876 226.684 482.355C226.684 480.089 226.082 478.354 224.877 477.149C223.701 475.916 222.252 475.299 220.531 475.299C218.81 475.299 217.361 475.916 216.185 477.149C215.038 478.354 214.464 480.089 214.464 482.355C214.464 484.621 215.024 486.371 216.142 487.605C217.29 488.81 218.724 489.412 220.445 489.412ZM243.323 474.137C244.097 472.875 245.101 471.885 246.335 471.168C247.597 470.451 249.031 470.092 250.637 470.092V476.418H249.045C247.152 476.418 245.718 476.862 244.743 477.751C243.796 478.641 243.323 480.19 243.323 482.398V494.274H237.299V470.437H243.323V474.137ZM260.719 474.137C261.493 472.875 262.497 471.885 263.731 471.168C264.993 470.451 266.427 470.092 268.033 470.092V476.418H266.441C264.548 476.418 263.114 476.862 262.139 477.751C261.192 478.641 260.719 480.19 260.719 482.398V494.274H254.695V470.437H260.719V474.137ZM270.542 482.269C270.542 479.86 271.015 477.723 271.962 475.858C272.937 473.994 274.242 472.559 275.877 471.555C277.541 470.551 279.391 470.049 281.428 470.049C283.206 470.049 284.755 470.408 286.075 471.125C287.423 471.842 288.499 472.746 289.302 473.836V470.437H295.369V494.274H289.302V490.789C288.527 491.907 287.452 492.84 286.075 493.586C284.727 494.303 283.163 494.661 281.385 494.661C279.377 494.661 277.541 494.145 275.877 493.112C274.242 492.08 272.937 490.631 271.962 488.766C271.015 486.873 270.542 484.708 270.542 482.269ZM289.302 482.355C289.302 480.892 289.015 479.645 288.441 478.612C287.868 477.551 287.093 476.747 286.118 476.202C285.142 475.629 284.095 475.342 282.977 475.342C281.858 475.342 280.825 475.614 279.879 476.159C278.932 476.704 278.158 477.508 277.555 478.569C276.982 479.602 276.695 480.835 276.695 482.269C276.695 483.704 276.982 484.966 277.555 486.056C278.158 487.117 278.932 487.935 279.879 488.508C280.854 489.082 281.887 489.369 282.977 489.369C284.095 489.369 285.142 489.096 286.118 488.551C287.093 487.978 287.868 487.174 288.441 486.142C289.015 485.08 289.302 483.818 289.302 482.355Z" fill="black"/>
</g>
<rect x="19.6591" y="537.11" width="349.337" height="55.3667" rx="5.93214" stroke="#D1D1D1" stroke-width="1.31825"/>
<path d="M34.5555 559.736V570.793H33.4481V559.736H34.5555ZM41.1127 561.998C42.1462 561.998 42.9899 562.319 43.6438 562.963C44.2976 563.596 44.6245 564.518 44.6245 565.731V570.793H43.533V565.858C43.533 564.919 43.2957 564.202 42.8212 563.706C42.3572 563.211 41.7191 562.963 40.9071 562.963C40.0739 562.963 39.4095 563.226 38.9139 563.754C38.4182 564.281 38.1704 565.056 38.1704 566.079V570.793H37.063V562.156H38.1704V563.627C38.4446 563.1 38.84 562.699 39.3568 562.425C39.8736 562.14 40.4589 561.998 41.1127 561.998ZM50.0475 570.92C49.0562 570.92 48.2441 570.693 47.6114 570.24C46.9892 569.776 46.6411 569.148 46.5673 568.357H47.7063C47.759 568.842 47.9858 569.238 48.3865 569.544C48.7978 569.839 49.3462 569.986 50.0317 569.986C50.6328 569.986 51.1021 569.844 51.4396 569.559C51.7876 569.275 51.9616 568.921 51.9616 568.499C51.9616 568.204 51.8667 567.962 51.6769 567.772C51.4871 567.582 51.2445 567.434 50.9492 567.329C50.6645 567.213 50.2743 567.092 49.7786 566.965C49.1353 566.796 48.6133 566.628 48.2125 566.459C47.8118 566.29 47.469 566.042 47.1843 565.715C46.9101 565.378 46.773 564.93 46.773 564.371C46.773 563.949 46.8995 563.559 47.1526 563.2C47.4057 562.842 47.7643 562.557 48.2283 562.346C48.6924 562.135 49.2197 562.029 49.8102 562.029C50.7383 562.029 51.4871 562.267 52.0565 562.741C52.626 563.205 52.9319 563.849 52.974 564.671H51.8667C51.8351 564.165 51.6347 563.759 51.2656 563.453C50.907 563.137 50.4114 562.979 49.7786 562.979C49.2197 562.979 48.7662 563.11 48.4182 563.374C48.0701 563.638 47.8961 563.965 47.8961 564.355C47.8961 564.692 47.9963 564.972 48.1967 565.193C48.4076 565.404 48.666 565.573 48.9718 565.699C49.2777 565.815 49.689 565.947 50.2057 566.095C50.8279 566.264 51.3236 566.427 51.6927 566.585C52.0618 566.744 52.3782 566.976 52.6418 567.281C52.9055 567.587 53.0426 567.993 53.0531 568.499C53.0531 568.963 52.9266 569.38 52.6735 569.749C52.4204 570.108 52.0671 570.392 51.6136 570.603C51.1601 570.814 50.6381 570.92 50.0475 570.92ZM55.6912 560.527C55.4697 560.527 55.2799 560.448 55.1217 560.289C54.9635 560.131 54.8844 559.936 54.8844 559.704C54.8844 559.472 54.9635 559.282 55.1217 559.135C55.2799 558.976 55.4697 558.897 55.6912 558.897C55.9127 558.897 56.1025 558.976 56.2607 559.135C56.4189 559.282 56.498 559.472 56.498 559.704C56.498 559.936 56.4189 560.131 56.2607 560.289C56.1025 560.448 55.9127 560.527 55.6912 560.527ZM56.2449 562.156V570.793H55.1375V562.156H56.2449ZM59.8598 563.69C60.1023 563.153 60.4714 562.736 60.9671 562.441C61.4733 562.145 62.0903 561.998 62.8179 561.998V563.153H62.5174C61.7159 563.153 61.0726 563.369 60.5875 563.801C60.1023 564.234 59.8598 564.956 59.8598 565.968V570.793H58.7524V562.156H59.8598V563.69ZM63.9776 566.459C63.9776 565.573 64.1516 564.798 64.4996 564.133C64.8581 563.458 65.3485 562.942 65.9708 562.583C66.6035 562.214 67.3154 562.029 68.1063 562.029C68.9289 562.029 69.6355 562.219 70.2261 562.599C70.8272 562.979 71.2596 563.464 71.5232 564.054V562.156H72.6306V570.793H71.5232V568.879C71.249 569.47 70.8114 569.96 70.2103 570.35C69.6197 570.73 68.9131 570.92 68.0905 570.92C67.3101 570.92 66.6035 570.735 65.9708 570.366C65.3485 569.997 64.8581 569.475 64.4996 568.8C64.1516 568.125 63.9776 567.345 63.9776 566.459ZM71.5232 566.475C71.5232 565.779 71.3809 565.167 71.0961 564.64C70.8114 564.112 70.4212 563.706 69.9255 563.422C69.4404 563.137 68.9025 562.994 68.312 562.994C67.7003 562.994 67.1519 563.132 66.6668 563.406C66.1817 563.68 65.7967 564.081 65.512 564.608C65.2378 565.125 65.1007 565.742 65.1007 566.459C65.1007 567.165 65.2378 567.788 65.512 568.325C65.7967 568.853 66.1817 569.259 66.6668 569.544C67.1519 569.818 67.7003 569.955 68.312 569.955C68.9025 569.955 69.4404 569.812 69.9255 569.528C70.4212 569.243 70.8114 568.837 71.0961 568.31C71.3809 567.782 71.5232 567.171 71.5232 566.475ZM82.4735 570.92C81.4822 570.92 80.6701 570.693 80.0374 570.24C79.4151 569.776 79.0671 569.148 78.9933 568.357H80.1323C80.185 568.842 80.4117 569.238 80.8125 569.544C81.2238 569.839 81.7722 569.986 82.4577 569.986C83.0588 569.986 83.5281 569.844 83.8656 569.559C84.2136 569.275 84.3876 568.921 84.3876 568.499C84.3876 568.204 84.2927 567.962 84.1028 567.772C83.913 567.582 83.6705 567.434 83.3752 567.329C83.0904 567.213 82.7002 567.092 82.2046 566.965C81.5613 566.796 81.0392 566.628 80.6385 566.459C80.2377 566.29 79.895 566.042 79.6102 565.715C79.336 565.378 79.1989 564.93 79.1989 564.371C79.1989 563.949 79.3255 563.559 79.5786 563.2C79.8317 562.842 80.1903 562.557 80.6543 562.346C81.1183 562.135 81.6456 562.029 82.2362 562.029C83.1642 562.029 83.913 562.267 84.4825 562.741C85.052 563.205 85.3578 563.849 85.4 564.671H84.2927C84.261 564.165 84.0607 563.759 83.6916 563.453C83.333 563.137 82.8373 562.979 82.2046 562.979C81.6456 562.979 81.1921 563.11 80.8441 563.374C80.4961 563.638 80.3221 563.965 80.3221 564.355C80.3221 564.692 80.4223 564.972 80.6227 565.193C80.8336 565.404 81.092 565.573 81.3978 565.699C81.7036 565.815 82.1149 565.947 82.6317 566.095C83.2539 566.264 83.7496 566.427 84.1187 566.585C84.4878 566.744 84.8042 566.976 85.0678 567.281C85.3315 567.587 85.4686 567.993 85.4791 568.499C85.4791 568.963 85.3526 569.38 85.0994 569.749C84.8463 570.108 84.4931 570.392 84.0396 570.603C83.5861 570.814 83.0641 570.92 82.4735 570.92ZM95.0459 562.156V570.793H93.9386V569.275C93.6855 569.812 93.2953 570.224 92.768 570.508C92.2407 570.793 91.6501 570.936 90.9962 570.936C89.9627 570.936 89.119 570.619 88.4652 569.986C87.8113 569.343 87.4844 568.415 87.4844 567.202V562.156H88.5759V567.076C88.5759 568.014 88.8079 568.731 89.272 569.227C89.7465 569.723 90.3898 569.971 91.2019 569.971C92.035 569.971 92.6994 569.707 93.1951 569.18C93.6908 568.652 93.9386 567.877 93.9386 566.854V562.156H95.0459ZM97.0678 566.459C97.0678 565.573 97.2418 564.798 97.5898 564.133C97.9484 563.458 98.4388 562.942 99.061 562.583C99.6938 562.214 100.406 562.029 101.197 562.029C102.019 562.029 102.726 562.219 103.316 562.599C103.917 562.979 104.35 563.464 104.613 564.054V562.156H105.721V570.793H104.613V568.879C104.339 569.47 103.902 569.96 103.301 570.35C102.71 570.73 102.003 570.92 101.181 570.92C100.4 570.92 99.6938 570.735 99.061 570.366C98.4388 569.997 97.9484 569.475 97.5898 568.8C97.2418 568.125 97.0678 567.345 97.0678 566.459ZM104.613 566.475C104.613 565.779 104.471 565.167 104.186 564.64C103.902 564.112 103.511 563.706 103.016 563.422C102.531 563.137 101.993 562.994 101.402 562.994C100.791 562.994 100.242 563.132 99.757 563.406C99.2719 563.68 98.887 564.081 98.6022 564.608C98.328 565.125 98.1909 565.742 98.1909 566.459C98.1909 567.165 98.328 567.788 98.6022 568.325C98.887 568.853 99.2719 569.259 99.757 569.544C100.242 569.818 100.791 569.955 101.402 569.955C101.993 569.955 102.531 569.812 103.016 569.528C103.511 569.243 103.902 568.837 104.186 568.31C104.471 567.782 104.613 567.171 104.613 566.475ZM113.697 563.69C113.94 563.153 114.309 562.736 114.804 562.441C115.311 562.145 115.928 561.998 116.655 561.998V563.153H116.355C115.553 563.153 114.91 563.369 114.425 563.801C113.94 564.234 113.697 564.956 113.697 565.968V570.793H112.59V562.156H113.697V563.69ZM126.136 566.032C126.136 566.411 126.125 566.701 126.104 566.902H118.938C118.97 567.556 119.128 568.115 119.413 568.579C119.697 569.043 120.072 569.396 120.536 569.638C121 569.87 121.506 569.986 122.054 569.986C122.771 569.986 123.373 569.812 123.858 569.464C124.353 569.116 124.68 568.647 124.839 568.057H126.009C125.798 568.9 125.345 569.591 124.649 570.129C123.963 570.656 123.098 570.92 122.054 570.92C121.242 570.92 120.515 570.74 119.871 570.382C119.228 570.013 118.722 569.496 118.353 568.832C117.994 568.157 117.815 567.371 117.815 566.475C117.815 565.578 117.994 564.793 118.353 564.118C118.711 563.443 119.212 562.926 119.856 562.567C120.499 562.209 121.232 562.029 122.054 562.029C122.877 562.029 123.594 562.209 124.206 562.567C124.828 562.926 125.303 563.411 125.629 564.023C125.967 564.624 126.136 565.293 126.136 566.032ZM125.013 566C125.023 565.357 124.891 564.808 124.617 564.355C124.353 563.901 123.99 563.559 123.526 563.327C123.062 563.095 122.555 562.979 122.007 562.979C121.184 562.979 120.483 563.242 119.903 563.77C119.323 564.297 119.001 565.04 118.938 566H125.013ZM131.136 570.92C130.144 570.92 129.332 570.693 128.699 570.24C128.077 569.776 127.729 569.148 127.655 568.357H128.794C128.847 568.842 129.074 569.238 129.475 569.544C129.886 569.839 130.434 569.986 131.12 569.986C131.721 569.986 132.19 569.844 132.528 569.559C132.876 569.275 133.05 568.921 133.05 568.499C133.05 568.204 132.955 567.962 132.765 567.772C132.575 567.582 132.333 567.434 132.037 567.329C131.753 567.213 131.362 567.092 130.867 566.965C130.223 566.796 129.701 566.628 129.301 566.459C128.9 566.29 128.557 566.042 128.272 565.715C127.998 565.378 127.861 564.93 127.861 564.371C127.861 563.949 127.988 563.559 128.241 563.2C128.494 562.842 128.852 562.557 129.316 562.346C129.78 562.135 130.308 562.029 130.898 562.029C131.826 562.029 132.575 562.267 133.145 562.741C133.714 563.205 134.02 563.849 134.062 564.671H132.955C132.923 564.165 132.723 563.759 132.354 563.453C131.995 563.137 131.499 562.979 130.867 562.979C130.308 562.979 129.854 563.11 129.506 563.374C129.158 563.638 128.984 563.965 128.984 564.355C128.984 564.692 129.084 564.972 129.285 565.193C129.496 565.404 129.754 565.573 130.06 565.699C130.366 565.815 130.777 565.947 131.294 566.095C131.916 566.264 132.412 566.427 132.781 566.585C133.15 566.744 133.466 566.976 133.73 567.281C133.994 567.587 134.131 567.993 134.141 568.499C134.141 568.963 134.015 569.38 133.762 569.749C133.508 570.108 133.155 570.392 132.702 570.603C132.248 570.814 131.726 570.92 131.136 570.92ZM137.317 564.054C137.591 563.474 138.024 562.994 138.614 562.615C139.215 562.225 139.927 562.029 140.75 562.029C141.53 562.029 142.232 562.214 142.854 562.583C143.487 562.942 143.977 563.458 144.325 564.133C144.684 564.798 144.863 565.573 144.863 566.459C144.863 567.345 144.684 568.125 144.325 568.8C143.977 569.475 143.487 569.997 142.854 570.366C142.232 570.735 141.53 570.92 140.75 570.92C139.938 570.92 139.231 570.73 138.63 570.35C138.029 569.96 137.591 569.475 137.317 568.895V574.875H136.226V562.156H137.317V564.054ZM143.74 566.459C143.74 565.742 143.597 565.125 143.313 564.608C143.038 564.081 142.659 563.68 142.174 563.406C141.688 563.132 141.14 562.994 140.528 562.994C139.938 562.994 139.395 563.137 138.899 563.422C138.414 563.706 138.029 564.112 137.744 564.64C137.46 565.167 137.317 565.779 137.317 566.475C137.317 567.171 137.46 567.782 137.744 568.31C138.029 568.837 138.414 569.243 138.899 569.528C139.395 569.812 139.938 569.955 140.528 569.955C141.14 569.955 141.688 569.818 142.174 569.544C142.659 569.259 143.038 568.853 143.313 568.325C143.597 567.788 143.74 567.165 143.74 566.459ZM150.681 570.92C149.869 570.92 149.136 570.74 148.482 570.382C147.839 570.013 147.328 569.496 146.948 568.832C146.579 568.157 146.394 567.371 146.394 566.475C146.394 565.578 146.584 564.798 146.964 564.133C147.343 563.458 147.86 562.942 148.514 562.583C149.168 562.214 149.901 562.029 150.713 562.029C151.525 562.029 152.258 562.214 152.912 562.583C153.576 562.942 154.093 563.458 154.462 564.133C154.842 564.798 155.031 565.578 155.031 566.475C155.031 567.36 154.842 568.141 154.462 568.816C154.082 569.491 153.56 570.013 152.896 570.382C152.231 570.74 151.493 570.92 150.681 570.92ZM150.681 569.955C151.251 569.955 151.778 569.828 152.263 569.575C152.748 569.311 153.138 568.921 153.434 568.405C153.74 567.877 153.892 567.234 153.892 566.475C153.892 565.715 153.745 565.077 153.449 564.561C153.154 564.033 152.764 563.643 152.279 563.39C151.794 563.126 151.266 562.994 150.697 562.994C150.127 562.994 149.6 563.126 149.115 563.39C148.63 563.643 148.24 564.033 147.944 564.561C147.66 565.077 147.517 565.715 147.517 566.475C147.517 567.234 147.66 567.877 147.944 568.405C148.24 568.921 148.625 569.311 149.099 569.575C149.584 569.828 150.112 569.955 150.681 569.955ZM160.024 570.92C159.033 570.92 158.221 570.693 157.588 570.24C156.966 569.776 156.618 569.148 156.544 568.357H157.683C157.735 568.842 157.962 569.238 158.363 569.544C158.774 569.839 159.323 569.986 160.008 569.986C160.609 569.986 161.079 569.844 161.416 569.559C161.764 569.275 161.938 568.921 161.938 568.499C161.938 568.204 161.843 567.962 161.653 567.772C161.463 567.582 161.221 567.434 160.926 567.329C160.641 567.213 160.251 567.092 159.755 566.965C159.112 566.796 158.59 566.628 158.189 566.459C157.788 566.29 157.445 566.042 157.161 565.715C156.886 565.378 156.749 564.93 156.749 564.371C156.749 563.949 156.876 563.559 157.129 563.2C157.382 562.842 157.741 562.557 158.205 562.346C158.669 562.135 159.196 562.029 159.787 562.029C160.715 562.029 161.463 562.267 162.033 562.741C162.602 563.205 162.908 563.849 162.95 564.671H161.843C161.811 564.165 161.611 563.759 161.242 563.453C160.883 563.137 160.388 562.979 159.755 562.979C159.196 562.979 158.743 563.11 158.395 563.374C158.047 563.638 157.873 563.965 157.873 564.355C157.873 564.692 157.973 564.972 158.173 565.193C158.384 565.404 158.642 565.573 158.948 565.699C159.254 565.815 159.665 565.947 160.182 566.095C160.804 566.264 161.3 566.427 161.669 566.585C162.038 566.744 162.355 566.976 162.618 567.281C162.882 567.587 163.019 567.993 163.03 568.499C163.03 568.963 162.903 569.38 162.65 569.749C162.397 570.108 162.043 570.392 161.59 570.603C161.137 570.814 160.614 570.92 160.024 570.92ZM166.553 563.089V568.452C166.553 568.979 166.654 569.343 166.854 569.544C167.054 569.744 167.408 569.844 167.914 569.844H168.926V570.793H167.74C166.959 570.793 166.379 570.614 166 570.255C165.62 569.886 165.43 569.285 165.43 568.452V563.089H164.228V562.156H165.43V559.989H166.553V562.156H168.926V563.089H166.553ZM170.246 566.459C170.246 565.573 170.42 564.798 170.768 564.133C171.127 563.458 171.617 562.942 172.24 562.583C172.872 562.214 173.584 562.029 174.375 562.029C175.198 562.029 175.904 562.219 176.495 562.599C177.096 562.979 177.528 563.464 177.792 564.054V562.156H178.899V570.793H177.792V568.879C177.518 569.47 177.08 569.96 176.479 570.35C175.888 570.73 175.182 570.92 174.359 570.92C173.579 570.92 172.872 570.735 172.24 570.366C171.617 569.997 171.127 569.475 170.768 568.8C170.42 568.125 170.246 567.345 170.246 566.459ZM177.792 566.475C177.792 565.779 177.65 565.167 177.365 564.64C177.08 564.112 176.69 563.706 176.194 563.422C175.709 563.137 175.171 562.994 174.581 562.994C173.969 562.994 173.421 563.132 172.936 563.406C172.45 563.68 172.066 564.081 171.781 564.608C171.507 565.125 171.37 565.742 171.37 566.459C171.37 567.165 171.507 567.788 171.781 568.325C172.066 568.853 172.45 569.259 172.936 569.544C173.421 569.818 173.969 569.955 174.581 569.955C175.171 569.955 175.709 569.812 176.194 569.528C176.69 569.243 177.08 568.837 177.365 568.31C177.65 567.782 177.792 567.171 177.792 566.475Z" fill="#6A6A6A"/>
</g>
<defs>
<filter id="filter0_f_2_674" x="-406.113" y="-98.1134" width="783.013" height="734.397" filterUnits="userSpaceOnUse" color-interpolation-filters="sRGB">
<feFlood flood-opacity="0" result="BackgroundImageFix"/>
<feBlend mode="normal" in="SourceGraphic" in2="BackgroundImageFix" result="shape"/>
<feGaussianBlur stdDeviation="107.557" result="effect1_foregroundBlur_2_674"/>
</filter>
<filter id="filter1_f_2_674" x="95.1004" y="268.44" width="783.013" height="734.397" filterUnits="userSpaceOnUse" color-interpolation-filters="sRGB">
<feFlood flood-opacity="0" result="BackgroundImageFix"/>
<feBlend mode="normal" in="SourceGraphic" in2="BackgroundImageFix" result="shape"/>
<feGaussianBlur stdDeviation="107.557" result="effect1_foregroundBlur_2_674"/>
</filter>
<filter id="filter2_f_2_674" x="70.3641" y="440.92" width="246.518" height="75.2554" filterUnits="userSpaceOnUse" color-interpolation-filters="sRGB">
<feFlood flood-opacity="0" result="BackgroundImageFix"/>
<feBlend mode="normal" in="SourceGraphic" in2="BackgroundImageFix" result="shape"/>
<feGaussianBlur stdDeviation="10.7569" result="effect1_foregroundBlur_2_674"/>
</filter>
<clipPath id="clip0_2_674">
<rect width="393" height="852" fill="white"/>
</clipPath>
<clipPath id="clip1_2_674">
<rect width="393" height="852" fill="white"/>
</clipPath>
<clipPath id="clip2_2_674">
<rect width="29.1978" height="33.3689" fill="white" transform="translate(289.203 795.459)"/>
</clipPath>
<clipPath id="clip3_2_674">
<rect width="194.7" height="155.76" fill="white" transform="translate(96.9775 269)"/>
</clipPath>
</defs>
</svg>
